<svg width="16" height="16" viewBox="0 0 16 16" fill="none" xmlns="http://www.w3.org/2000/svg">
<path d="M12.718 10.6667C11.9063 10.6667 11.1786 11.0317 10.6891 11.6057L5.87335 8.62819C5.92223 8.42653 5.94879 8.21634 5.94879 7.99997C5.94879 7.78356 5.9222 7.57334 5.87335 7.37175L10.6891 4.39422C11.1786 4.96825 11.9063 5.33328 12.718 5.33328C14.1884 5.33328 15.3847 4.137 15.3847 2.66663C15.3847 1.19628 14.1884 0 12.718 0C11.2476 0 10.0514 1.19628 10.0514 2.66666C10.0514 2.88306 10.078 3.09328 10.1268 3.29487L5.31107 6.27241C4.82154 5.69837 4.09388 5.33334 3.28213 5.33334C1.81173 5.33334 0.615479 6.52962 0.615479 8C0.615479 9.47038 1.81176 10.6667 3.28213 10.6667C4.09392 10.6667 4.82157 10.3016 5.3111 9.72759L10.1268 12.7051C10.0779 12.9067 10.0514 13.1169 10.0514 13.3333C10.0514 14.8038 11.2477 16 12.718 16C14.1884 16 15.3847 14.8037 15.3847 13.3333C15.3847 11.863 14.1884 10.6667 12.718 10.6667ZM12.718 1.23078C13.5098 1.23078 14.1539 1.87494 14.1539 2.66669C14.1539 3.45844 13.5098 4.10259 12.718 4.10259C11.9263 4.10259 11.2821 3.45844 11.2821 2.66669C11.2821 1.87494 11.9263 1.23078 12.718 1.23078ZM3.28217 9.43591C2.49042 9.43591 1.84626 8.79175 1.84626 8C1.84626 7.20825 2.49042 6.56409 3.28217 6.56409C4.07392 6.56409 4.71807 7.20825 4.71807 8C4.71807 8.79175 4.07392 9.43591 3.28217 9.43591ZM12.718 14.7692C11.9263 14.7692 11.2821 14.1251 11.2821 13.3333C11.2821 12.5416 11.9263 11.8974 12.718 11.8974C13.5098 11.8974 14.1539 12.5416 14.1539 13.3333C14.1539 14.1251 13.5098 14.7692 12.718 14.7692Z" fill="#878686"/>
</svg>
