<?xml version="1.0" encoding="UTF-8"?>
<!DOCTYPE svg PUBLIC "-//W3C//DTD SVG 1.1//EN" "http://www.w3.org/Graphics/SVG/1.1/DTD/svg11.dtd">
<!-- Creator: CorelDRAW X6 -->
<svg xmlns="http://www.w3.org/2000/svg" xml:space="preserve" width="48.0907mm" height="23.9607mm" version="1.1" style="shape-rendering:geometricPrecision; text-rendering:geometricPrecision; image-rendering:optimizeQuality; fill-rule:evenodd; clip-rule:evenodd"
viewBox="0 0 8940 4451"
 xmlns:xlink="http://www.w3.org/1999/xlink">
 <defs>
  <style type="text/css">
   <![CDATA[
    .fil0 {fill:white;fill-rule:nonzero}
   ]]>
  </style>
 </defs>
 <g id="Слой_x0020_1">
  <metadata id="CorelCorpID_0Corel-Layer"/>
  <g id="_176374736">
   <path class="fil0" d="M2783 3364c-84,-233 -256,-349 -517,-349l-82 0 0 1436 82 0c202,0 350,-79 447,-238 81,-136 121,-308 121,-518 0,-125 -17,-235 -51,-330z"/>
   <path class="fil0" d="M1370 3381c84,233 256,349 517,349l82 0 0 -1436 -82 0c-202,0 -350,79 -447,238 -81,136 -121,308 -121,518 0,125 17,235 51,330z"/>
   <polygon class="fil0" points="0,2 1095,2 1095,382 393,382 393,572 977,572 977,933 393,933 393,1125 1095,1125 1095,1506 0,1506 "/>
   <path class="fil0" d="M1646 0l1417 0 -709 1536 -709 -1536zm709 1346l586 -1266 -1169 0 583 1266z"/>
   <polygon class="fil0" points="3630,2 4725,2 4725,382 4023,382 4023,572 4606,572 4606,933 4023,933 4023,1125 4725,1125 4725,1506 3630,1506 "/>
   <polygon class="fil0" points="5399,1503 5399,0 5484,0 6534,1022 6534,0 6614,0 6614,1504 "/>
   <polygon class="fil0" points="7761,1506 7761,382 7193,382 7193,2 8407,2 8407,382 7839,382 7839,1506 "/>
   <path class="fil0" d="M646 2595c95,0 171,14 227,43 65,32 119,81 156,142 38,61 57,132 55,204 0,69 -19,137 -56,196 -38,60 -91,109 -153,142 78,28 146,77 197,143 52,65 81,146 80,229 1,73 -19,144 -57,206 -37,62 -90,113 -152,148 -33,18 -69,31 -106,39 -39,9 -91,13 -156,13l-665 0 0 -1504 631 0z"/>
   <path class="fil0" d="M3179 3989c-113,-99 -169,-247 -167,-444l352 0c-1,82 23,145 73,188 50,43 121,65 212,65 75,0 134,-12 177,-37 43,-24 65,-62 65,-112 0,-42 -22,-72 -66,-91 -42,-18 -86,-32 -131,-40 -43,-8 -70,-13 -80,-14 -98,-18 -194,-45 -287,-79 -78,-29 -148,-77 -203,-140 -55,-63 -82,-147 -82,-251 0,-104 27,-192 82,-265 55,-73 128,-127 219,-163 95,-37 197,-55 299,-54 131,0 245,24 340,73 96,49 171,123 226,223 25,42 42,89 50,137 6,43 9,86 9,129l-352 0c0,-78 -21,-135 -63,-172 -42,-37 -107,-55 -194,-55 -71,0 -125,12 -164,37 -39,24 -58,58 -58,99 0,46 26,80 78,102 64,25 130,45 197,58 130,26 231,51 304,75 73,24 139,68 189,126 53,60 80,145 80,255 0,104 -29,193 -86,268 -58,75 -134,132 -228,172 -97,40 -201,60 -306,59 -209,0 -370,-50 -483,-148z"/>
   <polygon class="fil0" points="5168,4098 5168,2975 4600,2975 4600,2595 5814,2595 5814,2975 5246,2975 5246,4098 "/>
   <polygon class="fil0" points="6222,2595 7318,2595 7318,2975 6616,2975 6616,3165 7199,3165 7199,3526 6616,3526 6616,3718 7318,3718 7318,4098 6222,4098 "/>
   <path class="fil0" d="M8940 4098l-1156 0 0 -1504 586 0c125,0 228,22 307,67 76,41 139,103 181,177 43,76 66,161 65,248 1,109 -36,216 -104,301 -65,86 -157,148 -261,176l382 534zm-1076 -1372l0 776 555 0 -555 -776zm0 1292l925 0 -315 -439 -67 2 -542 0 0 436zm56 -1344l588 821c94,-19 179,-70 240,-145 62,-74 96,-167 95,-264 1,-76 -19,-151 -58,-216 -39,-65 -96,-117 -164,-149 -63,-32 -146,-48 -248,-48l-452 0z"/>
  </g>
 </g>
</svg>
