<svg width="20" height="21" viewBox="0 0 20 21" fill="none" xmlns="http://www.w3.org/2000/svg">
<g clip-path="url(#clip0)">
<path d="M18.4212 20.4551H16.3947C16.3947 17.0818 13.5271 14.3384 9.9999 14.3384C6.47269 14.3384 3.60614 17.0828 3.60614 20.4551H1.57959C1.57959 15.9781 5.35809 12.3389 10.0009 12.3389C14.6427 12.3389 18.4212 15.9781 18.4212 20.4551Z" fill="#010002"/>
<path d="M10.0009 11.6893C6.93776 11.6893 4.44409 9.22781 4.44409 6.20547C4.44308 3.18214 6.93675 0.72168 10.0009 0.72168C13.066 0.72168 15.5597 3.18114 15.5597 6.20547C15.5597 9.22981 13.066 11.6893 10.0009 11.6893ZM10.0009 2.72124C8.05337 2.72124 6.46963 4.2839 6.46963 6.20547C6.46963 8.12705 8.05337 9.68971 10.0009 9.68971C11.9494 9.68971 13.5332 8.12705 13.5332 6.20547C13.5332 4.2839 11.9474 2.72124 10.0009 2.72124Z" fill="#010002"/>
</g>
<defs>
<clipPath id="clip0">
<rect width="20" height="19.7337" fill="white" transform="translate(0 0.72168)"/>
</clipPath>
</defs>
</svg>
